<mxfile host="app.diagrams.net" agent="Mozilla/5.0 (Windows NT 10.0; Win64; x64) AppleWebKit/537.36 (KHTML, like Gecko) Chrome/139.0.0.0 Safari/537.36" version="27.1.6" pages="2">
  <diagram name="Init Section" id="B-uzobbl4Og3ccgbKgkS">
    <mxGraphModel dx="6388" dy="897" grid="1" gridSize="10" guides="1" tooltips="1" connect="1" arrows="1" fold="1" page="1" pageScale="1" pageWidth="827" pageHeight="1169" math="0" shadow="0">
      <root>
        <mxCell id="0" />
        <mxCell id="1" parent="0" />
        <mxCell id="60jK4ZE4Ks-oWBBnAJ2H-5" style="edgeStyle=orthogonalEdgeStyle;rounded=0;orthogonalLoop=1;jettySize=auto;html=1;" parent="1" source="60jK4ZE4Ks-oWBBnAJ2H-1" target="60jK4ZE4Ks-oWBBnAJ2H-2" edge="1">
          <mxGeometry relative="1" as="geometry" />
        </mxCell>
        <mxCell id="60jK4ZE4Ks-oWBBnAJ2H-1" value="main&lt;div&gt;( &lt;b&gt;main.c&lt;/b&gt; )&lt;/div&gt;" style="text;html=1;align=center;verticalAlign=middle;resizable=0;points=[];autosize=1;strokeColor=none;fillColor=none;" parent="1" vertex="1">
          <mxGeometry x="70" y="223" width="80" height="40" as="geometry" />
        </mxCell>
        <mxCell id="60jK4ZE4Ks-oWBBnAJ2H-7" style="edgeStyle=orthogonalEdgeStyle;rounded=0;orthogonalLoop=1;jettySize=auto;html=1;" parent="1" source="60jK4ZE4Ks-oWBBnAJ2H-2" target="60jK4ZE4Ks-oWBBnAJ2H-6" edge="1">
          <mxGeometry relative="1" as="geometry" />
        </mxCell>
        <mxCell id="60jK4ZE4Ks-oWBBnAJ2H-2" value="USBD_StatusTypeDef&amp;nbsp; &amp;nbsp; &amp;nbsp; USBD_Init&amp;nbsp; (&amp;nbsp; USBD_HandleTypeDef *pdev,&amp;nbsp; USBD_DescriptorsTypeDef *pdesc,&amp;nbsp; uint8_t id&amp;nbsp; )&lt;div&gt;( &lt;b&gt;usbd_core.c&lt;/b&gt; )&lt;/div&gt;" style="text;html=1;align=center;verticalAlign=middle;resizable=0;points=[];autosize=1;strokeColor=none;fillColor=none;" parent="1" vertex="1">
          <mxGeometry x="75" y="480" width="660" height="40" as="geometry" />
        </mxCell>
        <mxCell id="60jK4ZE4Ks-oWBBnAJ2H-9" style="edgeStyle=orthogonalEdgeStyle;rounded=0;orthogonalLoop=1;jettySize=auto;html=1;" parent="1" source="60jK4ZE4Ks-oWBBnAJ2H-6" target="60jK4ZE4Ks-oWBBnAJ2H-8" edge="1">
          <mxGeometry relative="1" as="geometry" />
        </mxCell>
        <mxCell id="60jK4ZE4Ks-oWBBnAJ2H-13" style="edgeStyle=orthogonalEdgeStyle;rounded=0;orthogonalLoop=1;jettySize=auto;html=1;" parent="1" source="60jK4ZE4Ks-oWBBnAJ2H-6" target="60jK4ZE4Ks-oWBBnAJ2H-10" edge="1">
          <mxGeometry relative="1" as="geometry" />
        </mxCell>
        <mxCell id="60jK4ZE4Ks-oWBBnAJ2H-14" style="edgeStyle=orthogonalEdgeStyle;rounded=0;orthogonalLoop=1;jettySize=auto;html=1;" parent="1" source="60jK4ZE4Ks-oWBBnAJ2H-6" target="60jK4ZE4Ks-oWBBnAJ2H-12" edge="1">
          <mxGeometry relative="1" as="geometry" />
        </mxCell>
        <mxCell id="60jK4ZE4Ks-oWBBnAJ2H-6" value="USBD_StatusTypeDef USBD_LL_Init(USBD_HandleTypeDef *pdev)&lt;div&gt;&lt;b&gt;&lt;br&gt;&lt;/b&gt;&lt;/div&gt;&lt;div&gt;&lt;b&gt;usbd_conf.c&lt;/b&gt;&lt;/div&gt;" style="text;html=1;align=center;verticalAlign=middle;resizable=0;points=[];autosize=1;strokeColor=none;fillColor=none;" parent="1" vertex="1">
          <mxGeometry x="210" y="650" width="390" height="60" as="geometry" />
        </mxCell>
        <mxCell id="60jK4ZE4Ks-oWBBnAJ2H-20" style="edgeStyle=orthogonalEdgeStyle;rounded=0;orthogonalLoop=1;jettySize=auto;html=1;" parent="1" source="60jK4ZE4Ks-oWBBnAJ2H-8" target="60jK4ZE4Ks-oWBBnAJ2H-15" edge="1">
          <mxGeometry relative="1" as="geometry" />
        </mxCell>
        <mxCell id="60jK4ZE4Ks-oWBBnAJ2H-21" style="edgeStyle=orthogonalEdgeStyle;rounded=0;orthogonalLoop=1;jettySize=auto;html=1;" parent="1" source="60jK4ZE4Ks-oWBBnAJ2H-8" target="60jK4ZE4Ks-oWBBnAJ2H-16" edge="1">
          <mxGeometry relative="1" as="geometry" />
        </mxCell>
        <mxCell id="60jK4ZE4Ks-oWBBnAJ2H-22" style="edgeStyle=orthogonalEdgeStyle;rounded=0;orthogonalLoop=1;jettySize=auto;html=1;" parent="1" source="60jK4ZE4Ks-oWBBnAJ2H-8" target="60jK4ZE4Ks-oWBBnAJ2H-17" edge="1">
          <mxGeometry relative="1" as="geometry">
            <Array as="points">
              <mxPoint x="-573" y="1000" />
              <mxPoint x="-2078" y="1000" />
            </Array>
          </mxGeometry>
        </mxCell>
        <mxCell id="60jK4ZE4Ks-oWBBnAJ2H-23" style="edgeStyle=orthogonalEdgeStyle;rounded=0;orthogonalLoop=1;jettySize=auto;html=1;" parent="1" source="60jK4ZE4Ks-oWBBnAJ2H-8" target="60jK4ZE4Ks-oWBBnAJ2H-18" edge="1">
          <mxGeometry relative="1" as="geometry">
            <Array as="points">
              <mxPoint x="-573" y="1210" />
              <mxPoint x="-1378" y="1210" />
            </Array>
          </mxGeometry>
        </mxCell>
        <mxCell id="60jK4ZE4Ks-oWBBnAJ2H-24" style="edgeStyle=orthogonalEdgeStyle;rounded=0;orthogonalLoop=1;jettySize=auto;html=1;" parent="1" source="60jK4ZE4Ks-oWBBnAJ2H-8" target="60jK4ZE4Ks-oWBBnAJ2H-19" edge="1">
          <mxGeometry relative="1" as="geometry">
            <Array as="points">
              <mxPoint x="-573" y="1120" />
              <mxPoint x="-398" y="1120" />
            </Array>
          </mxGeometry>
        </mxCell>
        <mxCell id="60jK4ZE4Ks-oWBBnAJ2H-25" value="(hpcd-&amp;gt;Init.lpm_enable == 1)" style="edgeLabel;html=1;align=center;verticalAlign=middle;resizable=0;points=[];" parent="60jK4ZE4Ks-oWBBnAJ2H-24" vertex="1" connectable="0">
          <mxGeometry x="0.5177" y="-2" relative="1" as="geometry">
            <mxPoint x="12" y="-4" as="offset" />
          </mxGeometry>
        </mxCell>
        <mxCell id="60jK4ZE4Ks-oWBBnAJ2H-8" value="HAL_StatusTypeDef HAL_PCD_Init(PCD_HandleTypeDef *hpcd)&lt;div&gt;&lt;b&gt;stm32f7xx_hal_pcd.c&lt;/b&gt;&lt;br&gt;&lt;div&gt;&lt;br&gt;&lt;/div&gt;&lt;/div&gt;" style="text;html=1;align=center;verticalAlign=middle;resizable=0;points=[];autosize=1;strokeColor=none;fillColor=none;" parent="1" vertex="1">
          <mxGeometry x="-758" y="730" width="370" height="60" as="geometry" />
        </mxCell>
        <mxCell id="60jK4ZE4Ks-oWBBnAJ2H-10" value="HAL_StatusTypeDef HAL_PCDEx_SetRxFiFo(PCD_HandleTypeDef *hpcd, uint16_t size)&lt;div&gt;&lt;b&gt;&lt;br&gt;&lt;/b&gt;&lt;/div&gt;&lt;div&gt;&lt;b&gt;stm32f7xx_hal_pcd_ex.c&lt;/b&gt;&lt;/div&gt;" style="text;html=1;align=center;verticalAlign=middle;resizable=0;points=[];autosize=1;strokeColor=none;fillColor=none;" parent="1" vertex="1">
          <mxGeometry x="85" y="810" width="500" height="60" as="geometry" />
        </mxCell>
        <mxCell id="60jK4ZE4Ks-oWBBnAJ2H-12" value="HAL_StatusTypeDef HAL_PCDEx_SetTxFiFo(PCD_HandleTypeDef *hpcd, uint8_t fifo, uint16_t size)&lt;div&gt;&lt;b&gt;stm32f7xx_hal_pcd_ex.c&lt;/b&gt;&lt;/div&gt;" style="text;html=1;align=center;verticalAlign=middle;resizable=0;points=[];autosize=1;strokeColor=none;fillColor=none;" parent="1" vertex="1">
          <mxGeometry x="725" y="820" width="560" height="40" as="geometry" />
        </mxCell>
        <mxCell id="60jK4ZE4Ks-oWBBnAJ2H-15" value="void HAL_PCD_MspInit(PCD_HandleTypeDef *hpcd)&lt;div&gt;&lt;br&gt;&lt;/div&gt;&lt;div&gt;&lt;b&gt;( usbd_conf.c )&lt;/b&gt;&lt;/div&gt;" style="text;html=1;align=center;verticalAlign=middle;resizable=0;points=[];autosize=1;strokeColor=none;fillColor=none;" parent="1" vertex="1">
          <mxGeometry x="-3740" y="1150" width="310" height="60" as="geometry" />
        </mxCell>
        <mxCell id="NJ-oHcCMahYkHnb02j0Y-9" style="edgeStyle=orthogonalEdgeStyle;rounded=0;orthogonalLoop=1;jettySize=auto;html=1;" parent="1" source="60jK4ZE4Ks-oWBBnAJ2H-16" target="NJ-oHcCMahYkHnb02j0Y-1" edge="1">
          <mxGeometry relative="1" as="geometry" />
        </mxCell>
        <mxCell id="60jK4ZE4Ks-oWBBnAJ2H-16" value="HAL_StatusTypeDef USB_CoreInit(USB_OTG_GlobalTypeDef *USBx, USB_OTG_CfgTypeDef cfg)&lt;div&gt;&lt;br&gt;&lt;/div&gt;&lt;div&gt;&lt;b&gt;( stm32f7xx_ll_usb.c )&lt;/b&gt;&lt;/div&gt;" style="text;html=1;align=center;verticalAlign=middle;resizable=0;points=[];autosize=1;strokeColor=none;fillColor=none;" parent="1" vertex="1">
          <mxGeometry x="-3128" y="1025" width="550" height="60" as="geometry" />
        </mxCell>
        <mxCell id="60jK4ZE4Ks-oWBBnAJ2H-17" value="HAL_StatusTypeDef USB_SetCurrentMode(USB_OTG_GlobalTypeDef *USBx , USB_OTG_ModeTypeDef mode)&lt;div&gt;&lt;br&gt;&lt;/div&gt;&lt;div&gt;&lt;b&gt;( stm32f7xx_ll_usb.c )&lt;/b&gt;&lt;/div&gt;" style="text;html=1;align=center;verticalAlign=middle;resizable=0;points=[];autosize=1;strokeColor=none;fillColor=none;" parent="1" vertex="1">
          <mxGeometry x="-2356" y="1225" width="630" height="60" as="geometry" />
        </mxCell>
        <mxCell id="NJ-oHcCMahYkHnb02j0Y-3" style="edgeStyle=orthogonalEdgeStyle;rounded=0;orthogonalLoop=1;jettySize=auto;html=1;" parent="1" source="60jK4ZE4Ks-oWBBnAJ2H-18" target="NJ-oHcCMahYkHnb02j0Y-2" edge="1">
          <mxGeometry relative="1" as="geometry">
            <Array as="points">
              <mxPoint x="-1370" y="1430" />
              <mxPoint x="-1370" y="1430" />
            </Array>
          </mxGeometry>
        </mxCell>
        <mxCell id="NJ-oHcCMahYkHnb02j0Y-4" value="cfg.phy_itface&amp;nbsp; == USB_OTG_ULPI_PHY" style="edgeLabel;html=1;align=center;verticalAlign=middle;resizable=0;points=[];" parent="NJ-oHcCMahYkHnb02j0Y-3" vertex="1" connectable="0">
          <mxGeometry x="-0.3937" y="1" relative="1" as="geometry">
            <mxPoint y="1" as="offset" />
          </mxGeometry>
        </mxCell>
        <mxCell id="NJ-oHcCMahYkHnb02j0Y-5" value="cfg.speed == USB_OTG_SPEED_HIGH" style="edgeLabel;html=1;align=center;verticalAlign=middle;resizable=0;points=[];" parent="NJ-oHcCMahYkHnb02j0Y-3" vertex="1" connectable="0">
          <mxGeometry x="-0.0231" y="5" relative="1" as="geometry">
            <mxPoint y="1" as="offset" />
          </mxGeometry>
        </mxCell>
        <mxCell id="60jK4ZE4Ks-oWBBnAJ2H-18" value="HAL_StatusTypeDef USB_DevInit (USB_OTG_GlobalTypeDef *USBx, USB_OTG_CfgTypeDef cfg)&lt;div&gt;&lt;br&gt;&lt;/div&gt;&lt;div&gt;&lt;b&gt;(&amp;nbsp;stm32f7xx_ll_usb.c )&lt;/b&gt;&lt;/div&gt;" style="text;html=1;align=center;verticalAlign=middle;resizable=0;points=[];autosize=1;strokeColor=none;fillColor=none;" parent="1" vertex="1">
          <mxGeometry x="-1628" y="1320" width="550" height="60" as="geometry" />
        </mxCell>
        <mxCell id="xz1n0p6V88gExpHmgj5U-10" value="&lt;div style=&quot;text-wrap-mode: nowrap;&quot;&gt;&lt;br&gt;&lt;/div&gt;" style="rounded=1;whiteSpace=wrap;html=1;gradientColor=none;" parent="1" vertex="1">
          <mxGeometry x="-4620" y="1350" width="1980" height="680" as="geometry" />
        </mxCell>
        <mxCell id="60jK4ZE4Ks-oWBBnAJ2H-19" value="HAL_StatusTypeDef HAL_PCDEx_ActivateLPM(PCD_HandleTypeDef *hpcd)&lt;div&gt;&lt;br&gt;&lt;/div&gt;&lt;div&gt;&lt;b&gt;(&amp;nbsp;stm32f7xx_hal_pcd_ex.c )&lt;/b&gt;&lt;/div&gt;&lt;div&gt;&lt;br&gt;&lt;/div&gt;" style="text;html=1;align=center;verticalAlign=middle;resizable=0;points=[];autosize=1;strokeColor=none;fillColor=none;" parent="1" vertex="1">
          <mxGeometry x="-588" y="1430" width="440" height="70" as="geometry" />
        </mxCell>
        <mxCell id="60jK4ZE4Ks-oWBBnAJ2H-26" value="HAL_StatusTypeDef&amp;nbsp; USB_DevDisconnect (USB_OTG_GlobalTypeDef *USBx)&lt;div&gt;&lt;br&gt;&lt;/div&gt;&lt;div&gt;&lt;b&gt;(&amp;nbsp;stm32f7xx_ll_usb.c )&lt;/b&gt;&lt;/div&gt;" style="text;html=1;align=center;verticalAlign=middle;resizable=0;points=[];autosize=1;strokeColor=none;fillColor=none;" parent="1" vertex="1">
          <mxGeometry x="-208" y="1610" width="440" height="60" as="geometry" />
        </mxCell>
        <mxCell id="xz1n0p6V88gExpHmgj5U-1" value="__HAL_RCC_GPIOA_CLK_ENABLE ()&lt;div&gt;&lt;br&gt;&lt;/div&gt;&lt;div&gt;( &lt;b&gt;usbd_conf.c&lt;/b&gt; )&lt;/div&gt;" style="text;html=1;align=center;verticalAlign=middle;resizable=0;points=[];autosize=1;strokeColor=none;fillColor=none;" parent="1" vertex="1">
          <mxGeometry x="-4540" y="1405" width="230" height="60" as="geometry" />
        </mxCell>
        <mxCell id="xz1n0p6V88gExpHmgj5U-2" value="USB_FS_VBUS_CLK_ENABLE()&lt;div&gt;&lt;br&gt;&lt;/div&gt;&lt;div&gt;( usbd_conf.c )&lt;/div&gt;" style="text;html=1;align=center;verticalAlign=middle;resizable=0;points=[];autosize=1;strokeColor=none;fillColor=none;" parent="1" vertex="1">
          <mxGeometry x="-4360" y="1465" width="200" height="60" as="geometry" />
        </mxCell>
        <mxCell id="xz1n0p6V88gExpHmgj5U-3" value="USB_FS_FAULT_CLK_ENABLE()&lt;div&gt;&lt;br&gt;&lt;/div&gt;&lt;div&gt;usbd_conf.c&lt;/div&gt;" style="text;html=1;align=center;verticalAlign=middle;resizable=0;points=[];autosize=1;strokeColor=none;fillColor=none;" parent="1" vertex="1">
          <mxGeometry x="-4230" y="1531" width="210" height="60" as="geometry" />
        </mxCell>
        <mxCell id="xz1n0p6V88gExpHmgj5U-4" value="void HAL_GPIO_Init(GPIO_TypeDef&amp;nbsp; *GPIOx, GPIO_InitTypeDef *GPIO_Init)&lt;div&gt;&lt;br&gt;&lt;/div&gt;&lt;div&gt;stm32f7xx_hal_gpio.c&lt;/div&gt;" style="text;html=1;align=center;verticalAlign=middle;resizable=0;points=[];autosize=1;strokeColor=none;fillColor=none;" parent="1" vertex="1">
          <mxGeometry x="-4085" y="1591" width="430" height="60" as="geometry" />
        </mxCell>
        <mxCell id="xz1n0p6V88gExpHmgj5U-5" value="&amp;nbsp;__HAL_RCC_USB_OTG_FS_CLK_ENABLE()&lt;div&gt;&lt;br&gt;&lt;/div&gt;&lt;div&gt;usbd_conf.c&lt;/div&gt;" style="text;html=1;align=center;verticalAlign=middle;resizable=0;points=[];autosize=1;strokeColor=none;fillColor=none;" parent="1" vertex="1">
          <mxGeometry x="-3830" y="1651" width="270" height="60" as="geometry" />
        </mxCell>
        <mxCell id="xz1n0p6V88gExpHmgj5U-6" value="void HAL_GPIO_WritePin(GPIO_TypeDef* GPIOx, uint16_t GPIO_Pin, GPIO_PinState PinState)&lt;div&gt;&lt;br&gt;&lt;/div&gt;&lt;div&gt;stm32f7xx_hal_gpio.c&lt;/div&gt;" style="text;html=1;align=center;verticalAlign=middle;resizable=0;points=[];autosize=1;strokeColor=none;fillColor=none;" parent="1" vertex="1">
          <mxGeometry x="-3665" y="1711" width="540" height="60" as="geometry" />
        </mxCell>
        <mxCell id="xz1n0p6V88gExpHmgj5U-13" style="edgeStyle=orthogonalEdgeStyle;rounded=0;orthogonalLoop=1;jettySize=auto;html=1;" parent="1" source="xz1n0p6V88gExpHmgj5U-7" target="xz1n0p6V88gExpHmgj5U-12" edge="1">
          <mxGeometry relative="1" as="geometry" />
        </mxCell>
        <mxCell id="xz1n0p6V88gExpHmgj5U-7" value="void HAL_NVIC_SetPriority(IRQn_Type IRQn, uint32_t PreemptPriority, uint32_t SubPriority)&lt;div&gt;&lt;br&gt;&lt;/div&gt;&lt;div&gt;stm32f7xx_hal_cortex.c&lt;/div&gt;" style="text;html=1;align=center;verticalAlign=middle;resizable=0;points=[];autosize=1;strokeColor=none;fillColor=none;" parent="1" vertex="1">
          <mxGeometry x="-3300" y="1771" width="520" height="60" as="geometry" />
        </mxCell>
        <mxCell id="xz1n0p6V88gExpHmgj5U-15" style="edgeStyle=orthogonalEdgeStyle;rounded=0;orthogonalLoop=1;jettySize=auto;html=1;" parent="1" source="xz1n0p6V88gExpHmgj5U-8" target="xz1n0p6V88gExpHmgj5U-14" edge="1">
          <mxGeometry relative="1" as="geometry" />
        </mxCell>
        <mxCell id="xz1n0p6V88gExpHmgj5U-8" value="void HAL_NVIC_EnableIRQ(IRQn_Type IRQn)&lt;div&gt;&lt;br&gt;&lt;/div&gt;&lt;div&gt;stm32f7xx_hal_cortex.c&lt;/div&gt;" style="text;html=1;align=center;verticalAlign=middle;resizable=0;points=[];autosize=1;strokeColor=none;fillColor=none;" parent="1" vertex="1">
          <mxGeometry x="-2930" y="1840" width="270" height="60" as="geometry" />
        </mxCell>
        <mxCell id="xz1n0p6V88gExpHmgj5U-11" style="edgeStyle=orthogonalEdgeStyle;rounded=0;orthogonalLoop=1;jettySize=auto;html=1;entryX=0.522;entryY=0.01;entryDx=0;entryDy=0;entryPerimeter=0;" parent="1" source="60jK4ZE4Ks-oWBBnAJ2H-15" target="xz1n0p6V88gExpHmgj5U-10" edge="1">
          <mxGeometry relative="1" as="geometry" />
        </mxCell>
        <mxCell id="xz1n0p6V88gExpHmgj5U-12" value="__STATIC_INLINE void __NVIC_SetPriority(IRQn_Type IRQn, uint32_t priority)&lt;div&gt;&lt;br&gt;&lt;/div&gt;&lt;div&gt;core_cm7.h&lt;/div&gt;" style="text;html=1;align=center;verticalAlign=middle;resizable=0;points=[];autosize=1;strokeColor=none;fillColor=none;" parent="1" vertex="1">
          <mxGeometry x="-3260" y="2230" width="440" height="60" as="geometry" />
        </mxCell>
        <mxCell id="xz1n0p6V88gExpHmgj5U-14" value="__STATIC_INLINE void __NVIC_EnableIRQ(IRQn_Type IRQn)&lt;div&gt;&lt;br&gt;&lt;/div&gt;&lt;div&gt;core_cm7.h&lt;/div&gt;" style="text;html=1;align=center;verticalAlign=middle;resizable=0;points=[];autosize=1;strokeColor=none;fillColor=none;" parent="1" vertex="1">
          <mxGeometry x="-2975" y="2310" width="360" height="60" as="geometry" />
        </mxCell>
        <mxCell id="NJ-oHcCMahYkHnb02j0Y-1" value="static HAL_StatusTypeDef USB_CoreReset(USB_OTG_GlobalTypeDef *USBx)&lt;div&gt;&lt;br&gt;&lt;/div&gt;&lt;div&gt;stm32f7xx_ll_usb.c&lt;/div&gt;" style="text;html=1;align=center;verticalAlign=middle;resizable=0;points=[];autosize=1;strokeColor=none;fillColor=none;" parent="1" vertex="1">
          <mxGeometry x="-3078" y="1165" width="450" height="60" as="geometry" />
        </mxCell>
        <mxCell id="NJ-oHcCMahYkHnb02j0Y-2" value="HAL_StatusTypeDef USB_SetDevSpeed(USB_OTG_GlobalTypeDef *USBx , uint8_t speed)&lt;div&gt;&lt;br&gt;&lt;/div&gt;&lt;div&gt;stm32f7xx_ll_usb.c&lt;/div&gt;" style="text;html=1;align=center;verticalAlign=middle;resizable=0;points=[];autosize=1;strokeColor=none;fillColor=none;" parent="1" vertex="1">
          <mxGeometry x="-1650" y="1524.29" width="510" height="60" as="geometry" />
        </mxCell>
        <mxCell id="NJ-oHcCMahYkHnb02j0Y-6" value="HAL_StatusTypeDef USB_FlushTxFifo (USB_OTG_GlobalTypeDef *USBx, uint32_t num )&lt;div&gt;&lt;br&gt;&lt;/div&gt;&lt;div&gt;stm32f7xx_ll_usb.c&lt;/div&gt;" style="text;html=1;align=center;verticalAlign=middle;resizable=0;points=[];autosize=1;strokeColor=none;fillColor=none;" parent="1" vertex="1">
          <mxGeometry x="-1360" y="1603.29" width="500" height="60" as="geometry" />
        </mxCell>
        <mxCell id="NJ-oHcCMahYkHnb02j0Y-7" value="HAL_StatusTypeDef USB_FlushRxFifo(USB_OTG_GlobalTypeDef *USBx)&lt;div&gt;&lt;br&gt;&lt;/div&gt;&lt;div&gt;stm32f7xx_ll_usb.c&lt;/div&gt;" style="text;html=1;align=center;verticalAlign=middle;resizable=0;points=[];autosize=1;strokeColor=none;fillColor=none;" parent="1" vertex="1">
          <mxGeometry x="-1030" y="1663.29" width="420" height="60" as="geometry" />
        </mxCell>
        <mxCell id="NJ-oHcCMahYkHnb02j0Y-8" style="edgeStyle=orthogonalEdgeStyle;rounded=0;orthogonalLoop=1;jettySize=auto;html=1;entryX=0.314;entryY=-0.013;entryDx=0;entryDy=0;entryPerimeter=0;" parent="1" source="60jK4ZE4Ks-oWBBnAJ2H-8" target="60jK4ZE4Ks-oWBBnAJ2H-26" edge="1">
          <mxGeometry relative="1" as="geometry">
            <Array as="points">
              <mxPoint x="-573" y="1000" />
              <mxPoint x="-70" y="1000" />
            </Array>
          </mxGeometry>
        </mxCell>
      </root>
    </mxGraphModel>
  </diagram>
  <diagram id="vYwPoL3B_JDstKhWTVcn" name="Interrupt section">
    <mxGraphModel dx="2194" dy="1380" grid="1" gridSize="10" guides="1" tooltips="1" connect="1" arrows="1" fold="1" page="1" pageScale="1" pageWidth="827" pageHeight="1169" math="0" shadow="0">
      <root>
        <mxCell id="0" />
        <mxCell id="1" parent="0" />
        <mxCell id="9dJdatVoZQTbA-qfAXzA-1" value="&lt;div&gt;&lt;br&gt;&lt;/div&gt;" style="text;html=1;align=center;verticalAlign=middle;resizable=0;points=[];autosize=1;strokeColor=none;fillColor=none;" vertex="1" parent="1">
          <mxGeometry x="280" y="428" width="20" height="30" as="geometry" />
        </mxCell>
        <mxCell id="9dJdatVoZQTbA-qfAXzA-3" value="startup_stm32f746xx.s" style="shape=umlLifeline;perimeter=lifelinePerimeter;whiteSpace=wrap;html=1;container=1;dropTarget=0;collapsible=0;recursiveResize=0;outlineConnect=0;portConstraint=eastwest;newEdgeStyle={&quot;curved&quot;:0,&quot;rounded&quot;:0};" vertex="1" parent="1">
          <mxGeometry x="140" y="220" width="210" height="800" as="geometry" />
        </mxCell>
        <mxCell id="9dJdatVoZQTbA-qfAXzA-4" value="OTG_HS_IRQHandler" style="html=1;points=[[0,0,0,0,5],[0,1,0,0,-5],[1,0,0,0,5],[1,1,0,0,-5]];perimeter=orthogonalPerimeter;outlineConnect=0;targetShapes=umlLifeline;portConstraint=eastwest;newEdgeStyle={&quot;curved&quot;:0,&quot;rounded&quot;:0};" vertex="1" parent="9dJdatVoZQTbA-qfAXzA-3">
          <mxGeometry x="32.5" y="140" width="145" height="20" as="geometry" />
        </mxCell>
        <mxCell id="9dJdatVoZQTbA-qfAXzA-5" value="stm32f7xx_it.c" style="shape=umlLifeline;perimeter=lifelinePerimeter;whiteSpace=wrap;html=1;container=1;dropTarget=0;collapsible=0;recursiveResize=0;outlineConnect=0;portConstraint=eastwest;newEdgeStyle={&quot;curved&quot;:0,&quot;rounded&quot;:0};" vertex="1" parent="1">
          <mxGeometry x="600" y="220" width="230" height="820" as="geometry" />
        </mxCell>
        <mxCell id="9dJdatVoZQTbA-qfAXzA-6" value="HAL_PCD_IRQHandler" style="html=1;points=[[0,0,0,0,5],[0,1,0,0,-5],[1,0,0,0,5],[1,1,0,0,-5]];perimeter=orthogonalPerimeter;outlineConnect=0;targetShapes=umlLifeline;portConstraint=eastwest;newEdgeStyle={&quot;curved&quot;:0,&quot;rounded&quot;:0};" vertex="1" parent="9dJdatVoZQTbA-qfAXzA-5">
          <mxGeometry x="110" y="150" width="10" height="90" as="geometry" />
        </mxCell>
        <mxCell id="9dJdatVoZQTbA-qfAXzA-7" style="edgeStyle=orthogonalEdgeStyle;rounded=0;orthogonalLoop=1;jettySize=auto;html=1;curved=0;exitX=1;exitY=1;exitDx=0;exitDy=-5;exitPerimeter=0;entryX=0;entryY=0;entryDx=0;entryDy=5;entryPerimeter=0;" edge="1" parent="1" source="9dJdatVoZQTbA-qfAXzA-4" target="9dJdatVoZQTbA-qfAXzA-6">
          <mxGeometry relative="1" as="geometry" />
        </mxCell>
        <mxCell id="9dJdatVoZQTbA-qfAXzA-8" value="stm32f7xx_ll_usb.c" style="shape=umlLifeline;perimeter=lifelinePerimeter;whiteSpace=wrap;html=1;container=1;dropTarget=0;collapsible=0;recursiveResize=0;outlineConnect=0;portConstraint=eastwest;newEdgeStyle={&quot;curved&quot;:0,&quot;rounded&quot;:0};" vertex="1" parent="1">
          <mxGeometry x="1110" y="220" width="155" height="780" as="geometry" />
        </mxCell>
        <mxCell id="9dJdatVoZQTbA-qfAXzA-11" value="USB_GetMode" style="html=1;points=[[0,0,0,0,5],[0,1,0,0,-5],[1,0,0,0,5],[1,1,0,0,-5]];perimeter=orthogonalPerimeter;outlineConnect=0;targetShapes=umlLifeline;portConstraint=eastwest;newEdgeStyle={&quot;curved&quot;:0,&quot;rounded&quot;:0};" vertex="1" parent="9dJdatVoZQTbA-qfAXzA-8">
          <mxGeometry x="72.5" y="150" width="10" height="80" as="geometry" />
        </mxCell>
        <mxCell id="9dJdatVoZQTbA-qfAXzA-15" style="edgeStyle=orthogonalEdgeStyle;rounded=0;orthogonalLoop=1;jettySize=auto;html=1;curved=0;exitX=1;exitY=0;exitDx=0;exitDy=5;exitPerimeter=0;entryX=0;entryY=0;entryDx=0;entryDy=5;entryPerimeter=0;" edge="1" parent="1" source="9dJdatVoZQTbA-qfAXzA-6" target="9dJdatVoZQTbA-qfAXzA-11">
          <mxGeometry relative="1" as="geometry" />
        </mxCell>
        <mxCell id="9dJdatVoZQTbA-qfAXzA-16" style="edgeStyle=orthogonalEdgeStyle;rounded=0;orthogonalLoop=1;jettySize=auto;html=1;curved=0;exitX=0;exitY=1;exitDx=0;exitDy=-5;exitPerimeter=0;entryX=1;entryY=1;entryDx=0;entryDy=-5;entryPerimeter=0;" edge="1" parent="1" source="9dJdatVoZQTbA-qfAXzA-11" target="9dJdatVoZQTbA-qfAXzA-6">
          <mxGeometry relative="1" as="geometry" />
        </mxCell>
        <mxCell id="9dJdatVoZQTbA-qfAXzA-17" value="returns either DEVICE mode or&amp;nbsp;&lt;div&gt;HOST mode&lt;/div&gt;" style="edgeLabel;html=1;align=center;verticalAlign=middle;resizable=0;points=[];" vertex="1" connectable="0" parent="9dJdatVoZQTbA-qfAXzA-16">
          <mxGeometry x="0.1801" y="2" relative="1" as="geometry">
            <mxPoint as="offset" />
          </mxGeometry>
        </mxCell>
      </root>
    </mxGraphModel>
  </diagram>
</mxfile>
